HIERARCHY
ROOT Hips
{
 OFFSET 0.000000 0.000000 0.000000
 CHANNELS 6 Xposition Yposition Zposition Yrotation Xrotation Zrotation
 JOINT Chest
 {
  OFFSET 0.000000 106.808192 -0.167805
  CHANNELS 3 Yrotation Xrotation Zrotation
  JOINT Chest2
  {
   OFFSET 0.000000 103.692380 0.304812
   CHANNELS 3 Yrotation Xrotation Zrotation
   JOINT Chest3
   {
    OFFSET 0.000000 93.681247 0.000000
    CHANNELS 3 Yrotation Xrotation Zrotation
    JOINT Chest4
    {
     OFFSET 0.000000 93.681247 0.000000
     CHANNELS 3 Yrotation Xrotation Zrotation
     JOINT Neck
     {
      OFFSET 0.000000 131.507688 0.000000
      CHANNELS 3 Yrotation Xrotation Zrotation
      JOINT Head
      {
       OFFSET 0.000000 87.322139 0.724856
       CHANNELS 3 Yrotation Xrotation Zrotation
       End Site
       {
        OFFSET 0.000000 165.221580 0.378607
       }
      }
     }
     JOINT RightCollar
     {
      OFFSET -29.307334 73.569133 0.000000
      CHANNELS 3 Yrotation Xrotation Zrotation
      JOINT RightShoulder
      {
       OFFSET -143.043043 0.000000 0.000000
       CHANNELS 3 Yrotation Xrotation Zrotation
       JOINT RightElbow
       {
        OFFSET -306.262921 0.000000 0.000000
        CHANNELS 3 Yrotation Xrotation Zrotation
        JOINT RightWrist
        {
         OFFSET -250.411670 0.000000 -0.000000
         CHANNELS 3 Yrotation Xrotation Zrotation
         JOINT Prop1
         {
          OFFSET -35.763107 -10.218031 -20.436061
          CHANNELS 3 Yrotation Xrotation Zrotation
          End Site
          {
           OFFSET -764.579746 -313.937919 238.186906
          }
         }
         JOINT Prop2
         {
          OFFSET -35.763107 -10.218031 -20.436061
          CHANNELS 3 Yrotation Xrotation Zrotation
          End Site
          {
           OFFSET -697.048315 -219.073524 266.750341
          }
         }
         End Site
         {
          OFFSET -186.989962 0.000000 0.000000
         }
        }
       }
      }
     }
     JOINT LeftCollar
     {
      OFFSET 29.307334 73.569133 0.000000
      CHANNELS 3 Yrotation Xrotation Zrotation
      JOINT LeftShoulder
      {
       OFFSET 143.043043 0.000000 0.000000
       CHANNELS 3 Yrotation Xrotation Zrotation
       JOINT LeftElbow
       {
        OFFSET 306.262921 0.000000 0.000000
        CHANNELS 3 Yrotation Xrotation Zrotation
        JOINT LeftWrist
        {
         OFFSET 250.411670 0.000000 -0.000000
         CHANNELS 3 Yrotation Xrotation Zrotation
         End Site
         {
          OFFSET 186.989962 0.000000 0.000000
         }
        }
       }
      }
     }
    }
   }
  }
 }
 JOINT RightHip
 {
  OFFSET -88.075452 0.822242 0.083902
  CHANNELS 3 Yrotation Xrotation Zrotation
  JOINT RightKnee
  {
   OFFSET 0.000000 -484.915680 0.065615
   CHANNELS 3 Yrotation Xrotation Zrotation
   JOINT RightAnkle
   {
    OFFSET 0.000000 -392.968678 0.400036
    CHANNELS 3 Yrotation Xrotation Zrotation
    JOINT RightToe
    {
     OFFSET 0.000000 -71.234509 153.966940
     CHANNELS 3 Yrotation Xrotation Zrotation
     End Site
     {
      OFFSET 0.000000 -15.147291 62.724420
     }
    }
   }
  }
 }
 JOINT LeftHip
 {
  OFFSET 88.075452 0.822242 0.083902
  CHANNELS 3 Yrotation Xrotation Zrotation
  JOINT LeftKnee
  {
   OFFSET 0.000000 -484.915680 0.065615
   CHANNELS 3 Yrotation Xrotation Zrotation
   JOINT LeftAnkle
   {
    OFFSET 0.000000 -392.968678 0.400036
    CHANNELS 3 Yrotation Xrotation Zrotation
    JOINT LeftToe
    {
     OFFSET 0.000000 -71.234509 153.966940
     CHANNELS 3 Yrotation Xrotation Zrotation
     End Site
     {
      OFFSET 0.000000 -15.147291 62.724420
     }
    }
   }
  }
 }
}
MOTION
Frames: 12
Frame Time: 0.010000
0.000000 946.470504 0.000000 0.000000 -5.826342 0.000000 0.000000 11.116423 0.000000 0.000000 -5.290081 0.000000 0.000000 0.000000 0.000000 0.000000 0.000000 0.000000 0.000000 12.665069 0.000000 0.000000 0.575450 0.000000 0.000000 0.000000 0.000000 0.000000 0.000000 0.000000 2.337306 0.000000 0.000000 -2.337306 0.000000 0.000000 0.000000 0.000000 0.000000 0.000000 0.000000 0.000000 0.000000 0.000000 0.000000 0.000000 0.000000 0.000000 -2.337306 0.000000 0.000000 2.337306 0.000000 0.000000 0.000000 8.578828 0.000000 0.000000 1.905768 0.000000 0.000000 -4.658254 0.000000 0.000000 0.000000 0.000000 0.000000 8.578828 0.000000 0.000000 1.905768 0.000000 0.000000 -4.658254 0.000000 0.000000 0.000000 0.000000
-103.781760 962.035147 86.843536 -89.689253 -5.424163 0.234880 0.403654 0.014032 0.022834 0.177710 0.008493 0.007799 0.177710 0.008493 0.007799 0.133283 0.006372 0.005847 0.000000 12.665069 0.000000 0.000000 -12.665069 -0.000000 0.000000 0.000000 0.000000 0.605822 -0.109837 80.095281 0.000000 0.000000 0.000000 -0.196838 -0.485214 0.118824 79.569989 -20.685715 -27.338436 85.512671 -20.401536 20.130873 0.000000 0.000000 0.000000 0.594322 0.190058 -80.023374 0.000000 0.000000 0.000000 -0.261492 0.462497 -0.178897 1.472826 9.413115 -0.101425 -1.455439 0.957211 -0.182427 -1.179033 -4.856959 0.410670 0.005263 -0.031773 -0.016350 0.947293 8.625557 -0.326299 -2.231866 1.148771 0.071787 0.604518 -4.317445 0.216827 0.001913 -0.013454 -0.016490
-105.004022 962.204424 88.180716 -89.336073 -5.316375 0.246908 -0.022657 -0.015703 0.043950 0.017771 0.000861 0.000766 0.017771 0.000861 0.000766 0.013328 0.000646 0.000574 -0.000000 12.665069 -0.000000 0.000000 -12.665069 -0.000000 0.000000 0.000000 0.000000 0.056036 -0.008433 80.205803 0.000000 -0.000000 0.000000 -0.016241 -0.047881 0.007811 79.473716 -20.465487 -26.907463 85.685402 -20.308383 20.476471 0.000000 0.000000 0.000000 0.055452 0.006704 -80.207042 0.000000 0.000000 0.000000 -0.015449 0.047430 -0.007411 0.643132 8.996724 -0.065773 -1.613129 0.997071 -0.171524 -0.532455 -4.651414 0.219081 -0.008980 0.026558 -0.015607 0.584724 8.714592 -0.426393 -1.877328 1.134775 0.070496 0.219054 -4.447014 0.268086 0.034551 -0.063655 0.004104
-103.778953 962.279267 86.956394 -89.373109 -5.297284 0.280855 0.010345 -0.023438 0.026787 0.001777 0.000086 0.000076 0.001777 0.000086 0.000076 0.001333 0.000065 0.000057 -0.000000 12.665069 -0.000000 0.000000 -12.665069 0.000000 0.000000 0.000000 0.000000 0.005200 -0.000874 80.213104 0.000000 0.000000 0.000000 -0.001559 -0.004459 0.000868 79.463407 -20.436261 -26.844088 85.685576 -20.289679 20.524472 0.000000 0.000000 0.000000 0.005171 -0.000117 -80.214313 0.000000 0.000000 0.000000 -0.000766 0.004566 0.000103 0.627468 9.146615 -0.172236 -1.596456 0.971051 -0.167976 -0.548726 -4.736049 0.269711 0.018025 -0.024821 0.007392 0.612397 8.518599 -0.391728 -1.861401 1.158944 0.059941 0.231243 -4.337219 0.209888 0.013256 -0.020453 0.001112
-103.872253 962.331643 87.167968 -89.331389 -5.305435 0.294961 -0.027883 -0.011770 0.017287 0.000178 0.000009 0.000008 0.000178 0.000009 0.000008 0.000133 0.000006 0.000006 -0.000000 12.665069 -0.000000 0.000000 -12.665069 -0.000000 0.000000 0.000000 0.000000 0.000313 -0.000219 80.213628 0.000000 0.000000 0.000000 -0.000231 -0.000261 0.000379 79.461661 -20.420501 -26.835843 85.684998 -20.276003 20.520657 0.000000 0.000000 0.000000 0.000311 -0.000182 -80.214516 0.000000 0.000000 0.000000 0.000093 0.000316 0.000341 0.572883 9.028929 -0.117620 -1.590596 0.991895 -0.188854 -0.528296 -4.662918 0.209510 -0.007471 0.006445 0.006081 0.571009 8.581480 -0.413658 -1.872219 1.143540 0.063985 0.230161 -4.359269 0.203220 0.015520 -0.036395 0.009554
-103.425064 962.368977 86.949474 -89.338949 -5.294917 0.304605 -0.016683 -0.018283 0.015072 0.000018 0.000001 0.000001 0.000018 0.000001 0.000001 0.000013 0.000001 0.000001 -0.000000 12.665069 -0.000000 0.000000 -12.665069 -0.000000 0.000000 0.000000 0.000000 -0.000143 -0.000208 80.213733 0.000000 -0.000000 0.000000 -0.000147 0.000139 0.000291 79.455774 -20.405071 -26.831994 85.690870 -20.264453 20.515799 0.000000 0.000000 0.000000 -0.000143 -0.000207 -80.214448 0.000000 -0.000000 0.000000 0.000183 -0.000082 0.000289 0.574485 9.060620 -0.152299 -1.587583 0.979986 -0.188560 -0.540078 -4.681068 0.219744 -0.000401 -0.003831 0.018183 0.583392 8.542730 -0.407210 -1.880737 1.141248 0.065903 0.231707 -4.333613 0.178819 0.011053 -0.031450 0.014316
-103.140757 962.402775 86.866326 -89.332861 -5.296024 0.314379 -0.018946 -0.014662 0.010963 0.000002 0.000000 0.000000 0.000002 0.000000 0.000000 0.000001 0.000000 0.000000 -0.000000 12.665069 -0.000000 -0.000000 -12.665069 0.000000 0.000000 0.000000 0.000000 -0.000195 -0.000138 80.213762 0.000000 0.000000 0.000000 -0.000084 0.000174 0.000266 79.447849 -20.390540 -26.826312 85.692430 -20.251927 20.513625 0.000000 0.000000 0.000000 -0.000195 -0.000138 -80.214421 0.000000 0.000000 0.000000 0.000137 -0.000136 0.000266 0.569176 9.044353 -0.153872 -1.587272 0.982665 -0.193830 -0.545852 -4.672015 0.203389 -0.005189 0.001197 0.024315 0.582769 8.522354 -0.411313 -1.885545 1.146801 0.068910 0.225881 -4.317948 0.162043 0.009878 -0.031347 0.018906
-102.852731 962.436911 86.821452 -89.329887 -5.297940 0.324961 -0.020237 -0.011791 0.008688 0.000000 0.000000 0.000000 0.000000 0.000000 0.000000 0.000001 0.000000 0.000000 -0.000000 12.665069 -0.000000 0.000000 -12.665069 0.000000 0.000000 0.000000 0.000000 -0.000093 -0.000056 80.213646 0.000000 0.000000 0.000000 -0.000032 0.000083 0.000359 79.440222 -20.373704 -26.818207 85.694269 -20.238411 20.519135 0.000000 0.000000 0.000000 -0.000093 -0.000056 -80.214537 0.000000 0.000000 0.000000 0.000058 -0.000067 0.000359 0.569149 9.023020 -0.158359 -1.585979 0.995907 -0.198330 -0.552520 -4.668383 0.188016 -0.009135 0.006102 0.029446 0.588039 8.502401 -0.416588 -1.889976 1.149610 0.071364 0.214044 -4.300045 0.147308 0.009183 -0.030815 0.022400
-102.537613 962.473285 86.808891 -89.327279 -5.299930 0.334211 -0.021221 -0.010339 0.007762 0.000000 0.000000 0.000000 0.000000 0.000000 0.000000 0.000000 0.000000 0.000000 0.000000 12.665069 0.000000 0.000000 -12.665069 -0.000000 0.000000 0.000000 0.000000 -0.000086 0.000023 80.213641 0.000000 0.000000 0.000000 0.000030 0.000065 0.000364 79.427131 -20.354788 -26.812707 85.692105 -20.224285 20.520276 0.000000 0.000000 0.000000 -0.000086 0.000023 -80.214542 0.000000 0.000000 0.000000 -0.000006 -0.000071 0.000364 0.572514 8.998666 -0.163205 -1.585582 1.012653 -0.202748 -0.560129 -4.664184 0.174292 -0.012562 0.009443 0.033489 0.590680 8.477958 -0.423642 -1.896265 1.163560 0.072714 0.207914 -4.288676 0.135117 0.009471 -0.030839 0.025945
-102.210847 962.510554 86.823338 -89.324442 -5.301908 0.340796 -0.022486 -0.009030 0.006968 0.000000 0.000000 0.000000 0.000000 0.000000 0.000000 0.000000 0.000000 0.000000 0.000000 12.665069 0.000000 -0.000000 -12.665069 -0.000000 0.000000 0.000000 0.000000 -0.000083 0.000034 80.213766 0.000000 0.000000 0.000000 0.000038 0.000061 0.000264 79.415685 -20.342675 -26.801287 85.695309 -20.213569 20.513848 0.000000 0.000000 0.000000 -0.000083 0.000034 -80.214417 0.000000 0.000000 0.000000 -0.000015 -0.000071 0.000264 0.579479 8.970205 -0.165046 -1.590451 1.036594 -0.209371 -0.573027 -4.662378 0.162981 -0.015030 0.011594 0.036856 0.594112 8.453013 -0.429978 -1.907282 1.175080 0.077003 0.203204 -4.274497 0.121451 0.010547 -0.030983 0.029432
-101.871010 962.547674 86.854319 -89.323216 -5.303210 0.347444 -0.023217 -0.008055 0.006769 0.000000 0.000000 0.000000 0.000000 0.000000 0.000000 0.000000 0.000000 0.000000 0.000000 12.665069 0.000000 0.000000 -12.665069 -0.000000 0.000000 0.000000 0.000000 -0.000029 0.000018 80.213747 0.000000 0.000000 0.000000 0.000018 0.000021 0.000278 79.406766 -20.328000 -26.788755 85.699144 -20.203488 20.505736 0.000000 0.000000 0.000000 -0.000029 0.000018 -80.214436 0.000000 -0.000000 0.000000 -0.000010 -0.000026 0.000278 0.587468 8.941175 -0.168360 -1.595090 1.057969 -0.215476 -0.584005 -4.658200 0.152005 -0.017154 0.013423 0.039709 0.596649 8.422154 -0.436696 -1.929805 1.197915 0.077640 0.211043 -4.266617 0.111105 0.011935 -0.031153 0.032372
-101.536746 962.582725 86.896993 -89.325513 -5.303635 0.354674 -0.024075 -0.006667 0.007202 0.000000 0.000000 0.000000 0.000000 0.000000 0.000000 0.000000 0.000000 0.000000 0.000000 12.665069 0.000000 -0.000000 -12.665069 0.000000 0.000000 0.000000 0.000000 0.000156 -0.000047 80.213702 0.000000 0.000000 0.000000 -0.000058 -0.000116 0.000315 79.395630 -20.311414 -26.774014 85.706314 -20.192376 20.495843 0.000000 0.000000 0.000000 0.000156 -0.000047 -80.214481 0.000000 0.000000 0.000000 0.000016 0.000129 0.000315 0.599264 8.910630 -0.173007 -1.596158 1.081356 -0.219900 -0.599890 -4.655857 0.139881 -0.018943 0.015405 0.042407 0.601237 8.394616 -0.444560 -1.954916 1.212287 0.079727 0.220643 -4.254218 0.099223 0.013947 -0.031600 0.035691
